<svg width="24" height="23" viewBox="0 0 24 23" fill="none" xmlns="http://www.w3.org/2000/svg">
<path d="M9.41585 19.7794V16.8944C9.41584 16.1633 10.0103 15.5693 10.7467 15.5647H13.4504C14.1901 15.5647 14.7897 16.16 14.7897 16.8944V19.771C14.7897 20.4051 15.305 20.9204 15.9436 20.925H17.7883C18.6498 20.9273 19.4768 20.589 20.0868 19.985C20.6967 19.381 21.0395 18.5608 21.0395 17.7055V9.51033C21.0395 8.81942 20.731 8.16405 20.1972 7.72077L13.9306 2.74513C12.8351 1.87484 11.2706 1.90295 10.2076 2.81203L4.0757 7.72077C3.51666 8.15098 3.18253 8.80829 3.16602 9.51033V17.6971C3.16602 19.4799 4.62166 20.925 6.41728 20.925H8.21979C8.52729 20.9273 8.82297 20.8075 9.0412 20.5925C9.25944 20.3774 9.38217 20.0847 9.38216 19.7794H9.41585Z" fill="white"/>
</svg>
